<?xml version="1.0" encoding="iso-8859-1"?>
<!-- Generator: Adobe Illustrator 19.0.0, SVG Export Plug-In . SVG Version: 6.00 Build 0)  -->
<svg version="1.1" id="Layer_1" xmlns="http://www.w3.org/2000/svg" xmlns:xlink="http://www.w3.org/1999/xlink" x="0px" y="0px"
	 viewBox="0 0 512 512" style="enable-background:new 0 0 512 512;" xml:space="preserve">
<path style="fill:#63A59F;" d="M455.163,184.884c4.764-10.576,7.425-22.298,7.425-34.651c0-46.659-37.83-84.357-84.489-84.357
	c-23.329,0-72.712,54.636-122.095,54.667s-98.767-54.541-122.096-54.541c-46.659,0-84.483,37.698-84.483,84.357
	c0,12.352,2.648,24.011,7.412,34.588C23.146,201.936,0,236.759,0,277.065v92.157c0,42.163,34.23,76.9,76.393,76.9h359.214
	c42.163,0,76.393-34.736,76.393-76.9v-92.157C512,236.759,488.854,201.873,455.163,184.884z"/>
<path style="fill:#71C9BF;" d="M256.003,120.543c-49.383,0.033-98.766-54.54-122.095-54.54c-46.659,0-84.483,37.698-84.483,84.357
	c0,12.352,2.648,24.011,7.412,34.588C23.146,201.936,0,236.759,0,277.065v92.157c0,42.163,34.23,76.9,76.393,76.9H256
	L256.003,120.543z"/>
<circle style="fill:#2F3031;" cx="130.402" cy="156.12" r="23.749"/>
<circle style="fill:#0E1216;" cx="381.598" cy="156.12" r="23.749"/>
<path style="fill:#4E878D;" d="M491.236,343.88c-155.192-31.816-315.266-31.816-470.458,0L0,348.132v21.092
	c0,42.163,34.23,76.9,76.393,76.9h359.214c42.163,0,76.393-34.736,76.393-76.9v-21.092L491.236,343.88z"/>
<path style="fill:#59999F;" d="M256.01,320.018c-78.818,0-157.636,7.953-235.232,23.862L0,348.132v21.092
	c0,42.163,34.23,76.9,76.393,76.9H256L256.01,320.018z"/>
<g>
</g>
<g>
</g>
<g>
</g>
<g>
</g>
<g>
</g>
<g>
</g>
<g>
</g>
<g>
</g>
<g>
</g>
<g>
</g>
<g>
</g>
<g>
</g>
<g>
</g>
<g>
</g>
<g>
</g>
</svg>
