<?xml version="1.0" encoding="iso-8859-1"?>
<!-- Generator: Adobe Illustrator 19.0.0, SVG Export Plug-In . SVG Version: 6.00 Build 0)  -->
<svg version="1.1" id="Layer_1" xmlns="http://www.w3.org/2000/svg" xmlns:xlink="http://www.w3.org/1999/xlink" x="0px" y="0px"
	 viewBox="0 0 512 512" style="enable-background:new 0 0 512 512;" xml:space="preserve">
<polyline style="fill:#9F7267;" points="178.16,134.755 154.867,0 211.624,0 234.918,134.755 "/>
<polyline style="fill:#76554D;" points="333.84,134.755 357.133,0 300.375,0 277.082,134.755 "/>
<path style="fill:#DDD47F;" d="M387.16,184.298h-90.188l0,0c0-57.162,46.339-103.501,103.501-103.501h90.188l0,0
	C490.661,137.96,444.322,184.298,387.16,184.298z"/>
<path style="fill:#FFF28E;" d="M124.839,184.298h90.188l0,0c0-57.162-46.339-103.501-103.501-103.501H21.339l0,0
	C21.339,137.96,67.678,184.298,124.839,184.298z"/>
<path style="fill:#DDD47F;" d="M364.436,352.319l6.441,29.298c9.44,42.938-9.078,87.184-46.288,110.598l0,0
	c-41.922,26.38-95.257,26.38-137.178,0l0,0c-37.211-23.414-55.727-67.659-46.288-110.598l6.441-29.298l11.089-67.025l-18.09-82.317
	c-7.794-35.466,19.209-69.046,55.52-69.046h119.835c36.312,0,63.314,33.58,55.52,69.046l-18.087,82.317L364.436,352.319z"/>
<path style="fill:#FFF28E;" d="M256.001,512c-23.814,0-47.629-6.595-68.59-19.785l0,0c-37.211-23.414-55.727-67.659-46.288-110.598
	l6.441-29.298l11.089-67.025l-18.09-82.317c-7.794-35.466,19.209-69.046,55.52-69.046h59.918L256.001,512z"/>
<path style="fill:#381C19;" d="M228.256,461.083c-4.846,0-9.691-1.848-13.39-5.547l-22.75-22.752
	c-7.394-7.395-7.394-19.384,0-26.778c7.395-7.394,19.382-7.394,26.778,0l22.75,22.752c7.394,7.395,7.394,19.384,0,26.778
	C237.949,459.233,233.101,461.083,228.256,461.083z"/>
<path style="fill:#1F0A04;" d="M283.744,461.083c-4.846,0-9.691-1.848-13.389-5.546c-7.395-7.395-7.395-19.384,0-26.779
	l22.75-22.752c7.395-7.395,19.384-7.395,26.778,0c7.395,7.395,7.395,19.384,0,26.779l-22.75,22.752
	C293.436,459.235,288.59,461.083,283.744,461.083z"/>
<path style="fill:#773936;" d="M195.406,218.389h-46.707c-10.457,0-18.935-8.478-18.935-18.935s8.478-18.935,18.935-18.935h46.707
	c10.457,0,18.935,8.478,18.935,18.935S205.865,218.389,195.406,218.389z"/>
<path style="fill:#622F2B;" d="M363.3,218.389h-46.707c-10.457,0-18.935-8.478-18.935-18.935s8.478-18.935,18.935-18.935H363.3
	c10.457,0,18.935,8.478,18.935,18.935S373.759,218.389,363.3,218.389z"/>
<path style="fill:#FBC373;" d="M148.233,164.112c-2.289,0-4.615-0.418-6.876-1.299l-32.361-12.624
	c-9.743-3.801-14.56-14.78-10.759-24.523c3.802-9.743,14.78-14.558,24.523-10.759l32.361,12.624
	c9.743,3.801,14.56,14.78,10.759,24.523C162.96,159.535,155.808,164.112,148.233,164.112z"/>
<path style="fill:#D8AA64;" d="M363.305,164.112c-7.575,0-14.727-4.576-17.647-12.059c-3.8-9.743,1.017-20.722,10.759-24.523
	l32.361-12.624c9.745-3.798,20.722,1.016,24.523,10.759c3.8,9.743-1.017,20.722-10.759,24.523l-32.361,12.624
	C367.922,163.694,365.594,164.112,363.305,164.112z"/>
<circle style="fill:#010100;" cx="329.237" cy="257.522" r="25.437"/>
<circle style="fill:#2F3031;" cx="182.765" cy="257.522" r="25.437"/>
<g>
</g>
<g>
</g>
<g>
</g>
<g>
</g>
<g>
</g>
<g>
</g>
<g>
</g>
<g>
</g>
<g>
</g>
<g>
</g>
<g>
</g>
<g>
</g>
<g>
</g>
<g>
</g>
<g>
</g>
</svg>
