<?xml version="1.0" encoding="iso-8859-1"?>
<!-- Generator: Adobe Illustrator 19.0.0, SVG Export Plug-In . SVG Version: 6.00 Build 0)  -->
<svg version="1.1" id="Layer_1" xmlns="http://www.w3.org/2000/svg" xmlns:xlink="http://www.w3.org/1999/xlink" x="0px" y="0px"
	 viewBox="0 0 512.001 512.001" style="enable-background:new 0 0 512.001 512.001;" xml:space="preserve">
<path style="fill:#622F2B;" d="M351.058,512l135.906-173.137c18.342-23.366,21.673-55.176,8.571-81.835l-37.881-77.076
	l10.785-46.378L414.922,30.611C405.146,11.802,385.709,0,364.511,0h-83.457l-25.14,18.583L230.775,0h-83.457
	c-21.199,0-40.635,11.802-50.412,30.612L43.39,133.574l10.785,46.378l-37.708,76.722c-13.192,26.842-9.719,58.886,8.919,82.278
	l137.887,173.048h187.784V512z"/>
<path style="fill:#773936;" d="M255.914,18.583L230.775,0h-83.457c-21.199,0-40.635,11.802-50.412,30.612L43.39,133.574
	l10.785,46.378l-37.708,76.722c-13.192,26.842-9.719,58.886,8.919,82.278l137.887,173.048h92.728L255.914,18.583z"/>
<path style="fill:#D8AA64;" d="M198.878,387.844v21.008c0,19.747,16.008,35.754,35.754,35.754h42.566
	c19.747,0,35.754-16.008,35.754-35.754v-21.008H198.878z"/>
<path style="fill:#FBC373;" d="M198.878,387.844v21.008c0,19.747,16.008,35.754,35.754,35.754h21.37l-0.087-56.761h-57.037V387.844z
	"/>
<path style="fill:#76554D;" d="M256.001,409.885c-9.959,0-18.033-8.074-18.033-18.033V336.55c0-9.959,8.074-18.033,18.033-18.033
	c9.959,0,18.033,8.074,18.033,18.033v55.302C274.035,401.811,265.961,409.885,256.001,409.885z"/>
<path style="fill:#D8AA64;" d="M255.914,392.284l30.944,7.693c14.205,3.531,29.243,0.076,40.48-9.303l0,0
	c13.532-11.294,21.354-28.009,21.354-45.635v-3.643l64.43-96.186l-28.489-113.311c-7.492-29.801-34.287-50.693-65.016-50.693l0,0
	c-13.238,0-26.18,3.919-37.194,11.264l-26.509,17.678l-26.509-17.678c-11.014-7.344-23.956-11.264-37.194-11.264l0,0
	c-30.729,0-57.523,20.891-65.016,50.693L98.703,245.209l64.43,96.186v3.643c0,17.626,7.823,34.342,21.354,45.635l0,0
	c11.238,9.379,26.276,12.835,40.48,9.303L255.914,392.284z"/>
<path style="fill:#9F7267;" d="M256.001,409.885c-9.959,0-18.033-8.074-18.033-18.033V336.55c0-9.959,8.074-18.033,18.033-18.033
	V409.885z"/>
<path style="fill:#FBC373;" d="M255.914,392.284V110.148L229.404,92.47c-11.014-7.344-23.956-11.264-37.194-11.264l0,0
	c-30.729,0-57.523,20.891-65.016,50.693L98.705,245.211l64.43,96.186v3.642c0,17.626,7.823,34.342,21.354,45.635l0,0
	c11.238,9.379,26.276,12.835,40.48,9.303L255.914,392.284z"/>
<path style="fill:#D58C89;" d="M292.434,328.772l-26.7,26.7c-5.375,5.375-14.09,5.375-19.465,0l-26.7-26.7
	c-8.67-8.67-2.529-23.496,9.732-23.496h53.4C294.963,305.275,301.104,320.101,292.434,328.772z"/>
<path style="fill:#F19D9A;" d="M256.001,359.504c-3.523,0-7.045-1.344-9.733-4.031l-26.7-26.7c-8.67-8.67-2.529-23.496,9.732-23.496
	H256L256.001,359.504z"/>
<circle style="fill:#381C19;" cx="208.803" cy="199.149" r="19.296"/>
<circle style="fill:#1F0A04;" cx="303.19" cy="199.149" r="19.296"/>
<g>
</g>
<g>
</g>
<g>
</g>
<g>
</g>
<g>
</g>
<g>
</g>
<g>
</g>
<g>
</g>
<g>
</g>
<g>
</g>
<g>
</g>
<g>
</g>
<g>
</g>
<g>
</g>
<g>
</g>
</svg>
