<?xml version="1.0" encoding="iso-8859-1"?>
<!-- Generator: Adobe Illustrator 19.0.0, SVG Export Plug-In . SVG Version: 6.00 Build 0)  -->
<svg version="1.1" id="Layer_1" xmlns="http://www.w3.org/2000/svg" xmlns:xlink="http://www.w3.org/1999/xlink" x="0px" y="0px"
	 viewBox="0 0 511.999 511.999" style="enable-background:new 0 0 511.999 511.999;" xml:space="preserve">
<path style="fill:#BAB2B2;" d="M194.476,58.066c27.727,50.118,33.466,156.41-16.652,184.137S40.707,208.594,12.981,158.475
	S3.405,45.25,53.523,17.524S166.749,7.948,194.476,58.066z"/>
<path style="fill:#F19D9A;" d="M143.993,85.994c6.741,12.187,13.623,36.62,13.798,63.737c0.163,25.185-5.502,37.97-8.046,41.681
	c-0.188,0.008-0.4,0.013-0.637,0.013c-8.013,0-24.603-5.063-44.983-19.332c-21.299-14.913-35.217-31.7-40.661-41.543"/>
<path style="fill:#BAB2B2;" d="M317.523,58.066c-27.727,50.118-33.466,156.41,16.652,184.137s137.117-33.61,164.843-83.728
	s9.575-113.225-40.544-140.953S345.25,7.948,317.523,58.066z"/>
<path style="fill:#D58C89;" d="M368.005,85.994c-6.741,12.187-13.623,36.62-13.798,63.737c-0.163,25.185,5.502,37.97,8.046,41.681
	c0.188,0.008,0.4,0.013,0.637,0.013c8.013,0,24.602-5.063,44.983-19.332c21.299-14.913,35.217-31.7,40.661-41.543"/>
<path style="fill:#9F9999;" d="M306.2,118.423h-95.737c-39.576,0-74.936,25.692-86.153,63.646
	c-4.793,16.215-11.82,28.351-20.757,39.163c-16.387,19.827-25.95,45.288-25.95,72.996h-0.101c0,45.706,26.878,85.073,65.817,103.346
	c20.113,9.439,36.284,25.478,46.31,45.304c8.496,16.801,18.303,29.415,29.553,41.773h-0.006c19.667,21.665,53.893,21.665,73.56,0
	h-0.001c11.416-12.542,21.406-25.782,29.85-41.92c10.413-19.899,26.821-35.948,47.045-45.714
	c38.374-18.532,64.87-57.472,64.87-102.79h-0.203c0-27.708-9.564-53.168-25.949-72.996c-5.967-7.22-11.082-21.078-15.251-36.338
	C382.385,145.682,346.849,118.423,306.2,118.423z"/>
<path style="fill:#BAB2B2;" d="M256.162,118.423h-45.701c-39.576,0-74.936,25.692-86.153,63.646
	c-4.793,16.215-11.82,28.351-20.757,39.163c-16.387,19.827-25.95,45.288-25.95,72.996H77.5c0,45.706,26.878,85.073,65.817,103.346
	c20.112,9.439,36.284,25.478,46.31,45.304c8.496,16.801,18.303,29.415,29.553,41.773h-0.006
	c9.833,10.832,23.307,16.249,36.781,16.249L256.162,118.423z"/>
<circle style="fill:#2F3031;" cx="190.569" cy="297.616" r="19.018"/>
<circle style="fill:#0E1216;" cx="321.429" cy="297.616" r="19.018"/>
<circle style="fill:#76554D;" cx="256.005" cy="472.489" r="34.967"/>
<path style="fill:#9F7267;" d="M255.999,507.458c-19.312,0-34.967-15.655-34.967-34.967c0-19.312,15.655-34.967,34.967-34.967
	V507.458z"/>
<g>
</g>
<g>
</g>
<g>
</g>
<g>
</g>
<g>
</g>
<g>
</g>
<g>
</g>
<g>
</g>
<g>
</g>
<g>
</g>
<g>
</g>
<g>
</g>
<g>
</g>
<g>
</g>
<g>
</g>
</svg>
