<?xml version="1.0" encoding="iso-8859-1"?>
<!-- Generator: Adobe Illustrator 19.0.0, SVG Export Plug-In . SVG Version: 6.00 Build 0)  -->
<svg version="1.1" id="Layer_1" xmlns="http://www.w3.org/2000/svg" xmlns:xlink="http://www.w3.org/1999/xlink" x="0px" y="0px"
	 viewBox="0 0 512 512" style="enable-background:new 0 0 512 512;" xml:space="preserve">
<path style="fill:#DADADA;" d="M381.639,125.639v135.125L256,286.89l-125.639-26.127V125.639C130.361,56.25,186.611,0,256,0l0,0
	C325.388,0,381.639,56.25,381.639,125.639z"/>
<path style="fill:#F6F6F6;" d="M256,286.89l-125.639-26.127V125.639C130.361,56.25,186.611,0,256,0l0,0V286.89z"/>
<path style="fill:#D8AA64;" d="M185.399,413.815V118.416c0-7.566,9.585-10.839,14.212-4.851l51.788,67.012
	c2.357,2.545,6.844,2.545,9.2,0l51.788-67.012c4.627-5.988,14.212-2.715,14.212,4.851v295.399c0,30.902-13.877,60.172-37.802,79.731
	l-14.656,11.981c-10.555,8.629-25.727,8.629-36.281,0l-14.656-11.981C199.277,473.987,185.399,444.719,185.399,413.815z"/>
<path style="fill:#FBC373;" d="M185.399,413.815V118.416c0-7.566,9.585-10.839,14.212-4.851l51.788,67.012
	c1.176,1.271,2.882,1.907,4.59,1.909L256.004,512c-6.434,0.001-12.867-2.156-18.146-6.471l-14.656-11.981
	C199.277,473.987,185.399,444.719,185.399,413.815z"/>
<path style="fill:#DDD47F;" d="M256,456.789c-9.96,0-18.035-8.075-18.035-18.035V199.491c0-9.96,8.075-18.035,18.035-18.035
	c9.96,0,18.035,8.075,18.035,18.035v239.264C274.035,448.714,265.96,456.789,256,456.789z"/>
<path style="fill:#FFF28E;" d="M256,456.789c-9.96,0-18.035-8.075-18.035-18.035V199.491c0-9.96,8.075-18.035,18.035-18.035V456.789
	z"/>
<circle style="fill:#010100;" cx="320.421" cy="194.381" r="18.191"/>
<circle style="fill:#2F3031;" cx="191.579" cy="194.381" r="18.191"/>
<g>
</g>
<g>
</g>
<g>
</g>
<g>
</g>
<g>
</g>
<g>
</g>
<g>
</g>
<g>
</g>
<g>
</g>
<g>
</g>
<g>
</g>
<g>
</g>
<g>
</g>
<g>
</g>
<g>
</g>
</svg>
