<?xml version="1.0" encoding="iso-8859-1"?>
<!-- Generator: Adobe Illustrator 19.0.0, SVG Export Plug-In . SVG Version: 6.00 Build 0)  -->
<svg version="1.1" id="Layer_1" xmlns="http://www.w3.org/2000/svg" xmlns:xlink="http://www.w3.org/1999/xlink" x="0px" y="0px"
	 viewBox="0 0 511.997 511.997" style="enable-background:new 0 0 511.997 511.997;" xml:space="preserve">
<path style="fill:#F19D9A;" d="M228.124,246.966l-59.375,4.877L137.951,50.819c-3.876-25.296,14.506-48.573,40.01-50.668l0,0
	c25.504-2.095,47.438,17.871,47.743,43.459L228.124,246.966z"/>
<path style="fill:#D58C89;" d="M284.024,246.966l59.375,4.877l30.8-201.025c3.876-25.296-14.506-48.573-40.01-50.668l0,0
	c-25.504-2.095-47.438,17.871-47.743,43.459L284.024,246.966z"/>
<path style="fill:#9F9999;" d="M354.46,321.689c4.396-10.501,7.051-21.919,7.051-34.016V246.98
	c0-48.847-40.044-88.985-88.892-88.985h-33.166c-48.847,0-88.892,40.137-88.892,88.985v40.694c0,12.097,2.655,23.625,7.051,34.126
	c-28.729,14.609-48.301,44.447-48.301,78.885l0.056-0.081c0,48.847,39.653,88.363,88.501,88.363h116.335
	c48.847,0,88.445-40.007,88.445-88.501h0.036C402.684,366.518,383.189,336.298,354.46,321.689z"/>
<path style="fill:#BAB2B2;" d="M256.035,157.995h-16.582c-48.847,0-88.892,40.137-88.892,88.985v40.694
	c0,12.097,2.655,23.625,7.051,34.126c-28.729,14.609-48.301,44.447-48.301,78.885l0.056-0.081c0,48.847,39.653,88.363,88.501,88.363
	h58.168V157.995H256.035z"/>
<path style="fill:#D58C89;" d="M287.596,412.814l-23.102,23.102c-4.651,4.651-12.191,4.651-16.842,0l-23.102-23.102
	c-7.502-7.502-2.188-20.33,8.421-20.33h46.204C289.785,392.484,295.098,405.312,287.596,412.814z"/>
<path style="fill:#F19D9A;" d="M256.073,439.404c-3.048,0-6.096-1.163-8.421-3.488l-23.102-23.102
	c-7.502-7.502-2.188-20.33,8.421-20.33h23.064L256.073,439.404z"/>
<circle style="fill:#2F3031;" cx="194.082" cy="298.321" r="17.564"/>
<circle style="fill:#0E1216;" cx="318.069" cy="298.321" r="17.564"/>
<rect x="206.327" y="470.777" style="fill:#F6F6F6;" width="46.069" height="41.22"/>
<rect x="259.67" y="470.777" style="fill:#DADADA;" width="46.069" height="41.22"/>
<g>
</g>
<g>
</g>
<g>
</g>
<g>
</g>
<g>
</g>
<g>
</g>
<g>
</g>
<g>
</g>
<g>
</g>
<g>
</g>
<g>
</g>
<g>
</g>
<g>
</g>
<g>
</g>
<g>
</g>
</svg>
