<?xml version="1.0" encoding="iso-8859-1"?>
<!-- Generator: Adobe Illustrator 19.0.0, SVG Export Plug-In . SVG Version: 6.00 Build 0)  -->
<svg version="1.1" id="Layer_1" xmlns="http://www.w3.org/2000/svg" xmlns:xlink="http://www.w3.org/1999/xlink" x="0px" y="0px"
	 viewBox="0 0 512 512" style="enable-background:new 0 0 512 512;" xml:space="preserve">
<path style="fill:#010100;" d="M398.922,331.631l-29.487-153.483l11.006-53.721C380.441,55.7,324.727,0,256,0l0,0
	c-68.727,0-124.442,55.721-124.442,124.447l11.006,53.751L113.078,331.63c-6.969,36.286,20.838,69.835,57.787,69.835h170.27
	C378.083,401.465,405.89,367.917,398.922,331.631z"/>
<g>
	<path style="fill:#2F3031;" d="M256,0c-68.727,0-124.442,55.721-124.442,124.447l11.006,53.751L113.078,331.63
		c-6.969,36.286,20.838,69.835,57.787,69.835H256L256,0L256,0z"/>
	<circle style="fill:#2F3031;" cx="138.233" cy="153.44" r="22.901"/>
</g>
<circle style="fill:#0E1216;" cx="373.763" cy="153.44" r="22.901"/>
<path style="fill:#D8AA64;" d="M256,512l-58.687-176.754c-17.194-51.787-17.719-107.662-1.501-159.763l19.23-61.774
	c5.581-17.932,22.179-30.147,40.958-30.147l0,0c18.78,0,35.377,12.216,40.959,30.147l19.23,61.774
	c16.218,52.101,15.693,107.976-1.501,159.763L256,512z"/>
<path style="fill:#FBC373;" d="M256,512l-58.687-176.754c-17.194-51.787-17.719-107.662-1.501-159.763l19.23-61.774
	c5.581-17.932,22.179-30.147,40.958-30.147l0,0V512z"/>
<polygon style="fill:#63A59F;" points="256,511.999 304.021,367.37 207.979,367.37 "/>
<polygon style="fill:#71C9BF;" points="256,511.999 256,367.37 207.979,367.37 "/>
<path style="fill:#010100;" d="M315.32,333.274H196.679c0.213,0.657,0.416,1.317,0.634,1.973l10.666,32.122h96.041l10.666-32.122
	C314.904,334.59,315.108,333.931,315.32,333.274z"/>
<path style="fill:#2F3031;" d="M256,333.274h-59.32c0.213,0.657,0.416,1.317,0.634,1.973l10.666,32.122h48.021v-34.095H256z"/>
<g>
</g>
<g>
</g>
<g>
</g>
<g>
</g>
<g>
</g>
<g>
</g>
<g>
</g>
<g>
</g>
<g>
</g>
<g>
</g>
<g>
</g>
<g>
</g>
<g>
</g>
<g>
</g>
<g>
</g>
</svg>
