<?xml version="1.0" encoding="utf-8"?>
<svg version="1.1" xmlns="http://www.w3.org/2000/svg" xmlns:xlink="http://www.w3.org/1999/xlink" height="79.28982639453125" width="96.23169962023985">
  <defs>
    <path id="path-1" opacity="1" fill-rule="evenodd" d="M4.061418796271937,61.37160216411439 C-0.389753078728063,68.01540099223939 4.371965671271937,76.93752013286439 12.369524265021937,76.93752013286439 L83.86366489002194,76.93752013286439 C91.76503207752194,76.93752013286439 96.54530551502194,68.20436583598939 92.28651645252194,61.54811583598939 L57.36366489002194,6.9629107578643925 C53.47987582752194,0.8923541172393925 44.64393832752194,0.7988482578643925 40.63221957752194,6.7863970859893925 L4.061418796271937,61.37160216411439 L51.35194614002194,15.852315054739393 C51.35194614002194,13.920674429739393 49.78358676502194,12.352315054739393 47.85194614002194,12.352315054739393 C45.92030551502194,12.352315054739393 44.35194614002194,13.920674429739393 44.35194614002194,15.852315054739393 L44.35194614002194,51.85231505473939 C44.35194614002194,53.78395567973939 45.92030551502194,55.35231505473939 47.85194614002194,55.35231505473939 C49.78358676502194,55.35231505473939 51.35194614002194,53.78395567973939 51.35194614002194,51.85231505473939 L51.35194614002194,15.852315054739393 L47.85194614002194,59.35231505473939 C50.05995395252194,59.35231505473939 51.85194614002194,61.14455138286439 51.85194614002194,63.35231505473939 C51.85194614002194,65.56007872661439 50.05995395252194,67.35231505473939 47.85194614002194,67.35231505473939 C45.64393832752194,67.35231505473939 43.85194614002194,65.56007872661439 43.85194614002194,63.35231505473939 C43.85194614002194,61.14455138286439 45.64393832752194,59.35231505473939 47.85194614002194,59.35231505473939 L4.061418796271937,61.37160216411439Z"/>
  </defs>
  <g>
    <use xlink:href="#path-1" fill="rgb(255,0,84)" fill-opacity="1"/>
  </g>
</svg>